<svg width="157" height="86" viewBox="0 0 157 86" fill="none" xmlns="http://www.w3.org/2000/svg">
<path fill-rule="evenodd" clip-rule="evenodd" d="M105 32C105 33.5257 105.131 35.0206 105.384 36.4742C106.456 57.4507 122.727 73.7439 131 79.4118C139.273 73.7439 155.544 57.4507 156.616 36.4742C156.869 35.0206 157 33.5257 157 32C157 17.6406 145.359 6 131 6C116.641 6 105 17.6406 105 32ZM131 42.4874C136.792 42.4874 141.487 37.7921 141.487 32C141.487 26.208 136.792 21.5127 131 21.5127C130.638 21.5127 130.28 21.531 129.928 21.5668C124.639 22.1039 120.513 26.57 120.513 32C120.513 37.7921 125.208 42.4874 131 42.4874Z" fill="#1FD9E4"/>
<path d="M43.128 35.456L38.448 35.816L37.008 25.808H24.912V63.392H33.192V68H11.592V63.392H19.656V25.808H7.56L6.12 35.816L1.512 35.456L2.88 21.2H41.688L43.128 35.456ZM88.3524 68H78.9924L68.9124 48.416H58.9044V63.392H65.1684V68H47.6724V63.392H53.5764V25.808H47.6724V21.2H67.9044C73.7124 21.2 77.8644 22.472 80.3604 25.016C82.8564 27.512 84.1044 30.656 84.1044 34.448C84.1044 37.472 83.2644 40.184 81.5844 42.584C79.9044 44.936 77.4084 46.544 74.0964 47.408L82.4484 63.392H88.3524V68ZM78.5604 34.664C78.5604 31.592 77.6724 29.36 75.8964 27.968C74.1204 26.528 71.2404 25.808 67.2564 25.808H58.9044V44.024H67.4004C71.3844 44.024 74.2404 43.208 75.9684 41.576C77.6964 39.896 78.5604 37.592 78.5604 34.664Z" fill="#1FD9E4"/>
</svg>
